Rena.ufo
<glyph name="colon" format="2">
	<unicode hex="003A"/>
	<advance width="176"/>
	<outline>
		<contour>
			<point x="48" y="0" type="line"/>
			<point x="40" y="8" type="line"/>
			<point x="40" y="112" type="line"/>
			<point x="48" y="120" type="line"/>
			<point x="128" y="120" type="line"/>
			<point x="136" y="112" type="line"/>
			<point x="136" y="8" type="line"/>
			<point x="128" y="0" type="line"/>
		</contour>
		<contour>
			<point x="48" y="296" type="line"/>
			<point x="40" y="304" type="line"/>
			<point x="40" y="408" type="line"/>
			<point x="48" y="416" type="line"/>
			<point x="128" y="416" type="line"/>
			<point x="136" y="408" type="line"/>
			<point x="136" y="304" type="line"/>
			<point x="128" y="296" type="line"/>
		</contour>
	</outline>
</glyph>
<glyph name="A" format="2">
	<unicode hex="0041"/>
	<advance width="512"/>
	<outline>
		<contour>
			<point x="30" y="0" type="line"/>
			<point x="118" y="0" type="line"/>
			<point x="187" y="250" type="line"/>
			<point x="325" y="248" type="line"/>
			<point x="377" y="0" type="line"/>
			<point x="470" y="0" type="line"/>
			<point x="266" y="704" type="line"/>
			<point x="241" y="704" type="line"/>
		</contour>
		<contour>
			<point x="204" y="346" type="line"/>
			<point x="257" y="613" type="line"/>
			<point x="317" y="357" type="line"/>
		</contour>
	</outline>
</glyph>
<glyph name="B" format="2">
	<unicode hex="0042"/>
	<advance width="512"/>
	<outline>
		<contour>
			<point x="56" y="-1" type="line"/>
			<point x="48" y="7" type="line"/>
			<point x="48" y="695" type="line"/>
			<point x="56" y="704" type="line"/>
			<point x="260" y="704" type="line" smooth="yes"/>
			<point x="388" y="704"/>
			<point x="476" y="656"/>
			<point x="476" y="520" type="curve" smooth="yes"/>
			<point x="476" y="418"/>
			<point x="437" y="382"/>
			<point x="372" y="362" type="curve"/>
			<point x="372" y="340" type="line"/>
			<point x="457" y="328"/>
			<point x="488" y="232"/>
			<point x="490" y="158" type="curve" smooth="yes"/>
			<point x="492" y="94"/>
			<point x="452" y="1"/>
			<point x="305" y="0" type="curve" smooth="yes"/>
		</contour>
		<contour>
			<point x="160" y="416" type="line"/>
			<point x="252" y="416" type="line" smooth="yes"/>
			<point x="324" y="416"/>
			<point x="372" y="440"/>
			<point x="372" y="520" type="curve" smooth="yes"/>
			<point x="372" y="592"/>
			<point x="308" y="608"/>
			<point x="252" y="608" type="curve" smooth="yes"/>
			<point x="160" y="608" type="line"/>
			<point x="152" y="600" type="line"/>
			<point x="152" y="424" type="line"/>
		</contour>
		<contour>
			<point x="160" y="88" type="line"/>
			<point x="252" y="88" type="line" smooth="yes"/>
			<point x="324" y="88"/>
			<point x="372" y="112"/>
			<point x="372" y="192" type="curve" smooth="yes"/>
			<point x="372" y="264"/>
			<point x="308" y="280"/>
			<point x="252" y="280" type="curve" smooth="yes"/>
			<point x="160" y="280" type="line"/>
			<point x="152" y="272" type="line"/>
			<point x="152" y="96" type="line"/>
		</contour>
	</outline>
</glyph>
<glyph name="C" format="2">
	<unicode hex="0043"/>
	<advance width="524"/>
	<outline>
		<contour>
			<point x="250" y="-11" type="curve" smooth="yes"/>
			<point x="86" y="-5"/>
			<point x="23" y="90"/>
			<point x="24" y="352" type="curve" smooth="yes"/>
			<point x="25" y="526"/>
			<point x="77" y="715"/>
			<point x="243" y="716" type="curve" smooth="yes"/>
			<point x="377" y="717"/>
			<point x="468" y="624"/>
			<point x="464" y="513" type="curve"/>
			<point x="392" y="512" type="line"/>
			<point x="393" y="573"/>
			<point x="331" y="658"/>
			<point x="254" y="657" type="curve" smooth="yes"/>
			<point x="151" y="655"/>
			<point x="122" y="508"/>
			<point x="124" y="352" type="curve" smooth="yes"/>
			<point x="127" y="131"/>
			<point x="152" y="49"/>
			<point x="263" y="48" type="curve" smooth="yes"/>
			<point x="348" y="47"/>
			<point x="387" y="102"/>
			<point x="405" y="166" type="curve"/>
			<point x="471" y="166" type="line"/>
			<point x="448" y="70"/>
			<point x="388" y="-16"/>
		</contour>
	</outline>
</glyph>
<glyph name="D" format="2">
	<unicode hex="0044"/>
	<advance width="512"/>
	<outline>
		<contour>
			<point x="56" y="-1" type="line"/>
			<point x="48" y="7" type="line"/>
			<point x="48" y="695" type="line"/>
			<point x="56" y="704" type="line"/>
			<point x="296" y="704" type="line" smooth="yes"/>
			<point x="424" y="704"/>
			<point x="512" y="496"/>
			<point x="512" y="360" type="curve" smooth="yes"/>
			<point x="512" y="248"/>
			<point x="436" y="0"/>
			<point x="304" y="0" type="curve" smooth="yes"/>
		</contour>
		<contour>
			<point x="160" y="96" type="line"/>
			<point x="288" y="96" type="line" smooth="yes"/>
			<point x="360" y="96"/>
			<point x="408" y="280"/>
			<point x="408" y="360" type="curve" smooth="yes"/>
			<point x="408" y="432"/>
			<point x="344" y="608"/>
			<point x="288" y="608" type="curve" smooth="yes"/>
			<point x="160" y="608" type="line"/>
			<point x="152" y="600" type="line"/>
			<point x="152" y="104" type="line"/>
		</contour>
	</outline>
</glyph>
<glyph name="E" format="2">
	<unicode hex="0045"/>
	<advance width="416"/>
	<outline>
		<contour>
			<point x="56" y="0" type="line"/>
			<point x="48" y="7" type="line"/>
			<point x="48" y="696" type="line"/>
			<point x="56" y="704" type="line"/>
			<point x="376" y="704" type="line"/>
			<point x="384" y="696" type="line"/>
			<point x="384" y="616" type="line"/>
			<point x="376" y="608" type="line"/>
			<point x="160" y="608" type="line"/>
			<point x="152" y="600" type="line"/>
			<point x="152" y="440" type="line"/>
			<point x="160" y="432" type="line"/>
			<point x="320" y="432" type="line"/>
			<point x="328" y="424" type="line"/>
			<point x="328" y="344" type="line"/>
			<point x="320" y="336" type="line"/>
			<point x="160" y="336" type="line"/>
			<point x="152" y="328" type="line"/>
			<point x="152" y="104" type="line"/>
			<point x="160" y="96" type="line"/>
			<point x="384" y="96" type="line"/>
			<point x="392" y="88" type="line"/>
			<point x="392" y="8" type="line"/>
			<point x="384" y="0" type="line"/>
		</contour>
	</outline>
</glyph>
<glyph name="F" format="2">
	<unicode hex="0046"/>
	<advance width="416"/>
	<outline>
		<contour>
			<point x="56" y="0" type="line"/>
			<point x="48" y="7" type="line"/>
			<point x="48" y="696" type="line"/>
			<point x="56" y="704" type="line"/>
			<point x="376" y="704" type="line"/>
			<point x="384" y="696" type="line"/>
			<point x="384" y="616" type="line"/>
			<point x="376" y="608" type="line"/>
			<point x="160" y="608" type="line"/>
			<point x="152" y="600" type="line"/>
			<point x="152" y="440" type="line"/>
			<point x="160" y="432" type="line"/>
			<point x="320" y="432" type="line"/>
			<point x="328" y="424" type="line"/>
			<point x="328" y="344" type="line"/>
			<point x="320" y="336" type="line"/>
			<point x="160" y="336" type="line"/>
			<point x="152" y="328" type="line"/>
			<point x="152" y="8" type="line"/>
			<point x="144" y="0" type="line"/>
		</contour>
	</outline>
</glyph>
<glyph name="G" format="2">
	<unicode hex="0047"/>
	<advance width="512"/>
	<outline>
		<contour>
			<point x="238" y="-11" type="curve" smooth="yes"/>
			<point x="74" y="-5"/>
			<point x="10" y="95"/>
			<point x="11" y="357" type="curve" smooth="yes"/>
			<point x="12" y="531"/>
			<point x="90" y="711"/>
			<point x="256" y="712" type="curve" smooth="yes"/>
			<point x="390" y="713"/>
			<point x="456" y="624"/>
			<point x="452" y="513" type="curve"/>
			<point x="380" y="512" type="line"/>
			<point x="381" y="573"/>
			<point x="333" y="625"/>
			<point x="256" y="624" type="curve" smooth="yes"/>
			<point x="153" y="623"/>
			<point x="87" y="523"/>
			<point x="89" y="367" type="curve" smooth="yes"/>
			<point x="92" y="146"/>
			<point x="140" y="49"/>
			<point x="251" y="48" type="curve" smooth="yes"/>
			<point x="336" y="47"/>
			<point x="375" y="102"/>
			<point x="393" y="166" type="curve"/>
			<point x="459" y="166" type="line"/>
			<point x="436" y="70"/>
			<point x="376" y="-16"/>
		</contour>
	</outline>
</glyph>
<glyph name="H" format="2">
	<unicode hex="0048"/>
	<advance width="576"/>
	<outline>
		<contour>
			<point x="56" y="0" type="line"/>
			<point x="48" y="7" type="line"/>
			<point x="48" y="696" type="line"/>
			<point x="56" y="704" type="line"/>
			<point x="140" y="704" type="line"/>
			<point x="148" y="696" type="line"/>
			<point x="148" y="436" type="line"/>
			<point x="156" y="428" type="line"/>
			<point x="420" y="428" type="line"/>
			<point x="428" y="436" type="line"/>
			<point x="428" y="696" type="line"/>
			<point x="436" y="704" type="line"/>
			<point x="520" y="704" type="line"/>
			<point x="528" y="696" type="line"/>
			<point x="528" y="8" type="line"/>
			<point x="520" y="0" type="line"/>
			<point x="436" y="0" type="line"/>
			<point x="428" y="8" type="line"/>
			<point x="428" y="328" type="line"/>
			<point x="420" y="336" type="line"/>
			<point x="156" y="336" type="line"/>
			<point x="148" y="328" type="line"/>
			<point x="148" y="8" type="line"/>
			<point x="140" y="0" type="line"/>
		</contour>
	</outline>
</glyph>
<glyph name="J" format="2">
	<unicode hex="004A"/>
	<advance width="200"/>
	<outline>
		<contour>
			<point x="56" y="-256" type="line"/>
			<point x="48" y="-249" type="line"/>
			<point x="48" y="696" type="line"/>
			<point x="56" y="704" type="line"/>
			<point x="144" y="704" type="line"/>
			<point x="152" y="696" type="line"/>
			<point x="152" y="-248" type="line"/>
			<point x="144" y="-256" type="line"/>
		</contour>
	</outline>
</glyph>
<glyph name="L" format="2">
	<unicode hex="004C"/>
	<advance width="400"/>
	<outline>
		<contour>
			<point x="56" y="0" type="line"/>
			<point x="48" y="7" type="line"/>
			<point x="48" y="696" type="line"/>
			<point x="56" y="704" type="line"/>
			<point x="144" y="704" type="line"/>
			<point x="152" y="696" type="line"/>
			<point x="152" y="104" type="line"/>
			<point x="160" y="96" type="line"/>
			<point x="384" y="96" type="line"/>
			<point x="392" y="88" type="line"/>
			<point x="392" y="8" type="line"/>
			<point x="384" y="0" type="line"/>
		</contour>
	</outline>
</glyph>
<glyph name="N" format="2">
	<unicode hex="004E"/>
	<advance width="200"/>
	<outline>
		<contour>
			<point x="56" y="0" type="line"/>
			<point x="48" y="7" type="line"/>
			<point x="48" y="696" type="line"/>
			<point x="56" y="704" type="line"/>
			<point x="144" y="704" type="line"/>
			<point x="152" y="696" type="line"/>
			<point x="152" y="8" type="line"/>
			<point x="144" y="0" type="line"/>
		</contour>
	</outline>
</glyph>
<glyph name="O" format="2">
	<unicode hex="004F"/>
	<advance width="512"/>
	<outline>
		<contour>
			<point x="251" y="-32" type="curve" smooth="yes"/>
			<point x="79" y="-27"/>
			<point x="17" y="158"/>
			<point x="15" y="295" type="curve" smooth="yes"/>
			<point x="10" y="594"/>
			<point x="97" y="694"/>
			<point x="208" y="695" type="curve" smooth="yes"/>
			<point x="437" y="698"/>
			<point x="470" y="472"/>
			<point x="469" y="386" type="curve" smooth="yes"/>
			<point x="467" y="49"/>
			<point x="345" y="-35"/>
		</contour>
		<contour>
			<point x="241" y="85" type="curve" smooth="yes"/>
			<point x="293" y="83"/>
			<point x="367" y="241"/>
			<point x="363" y="386" type="curve" smooth="yes"/>
			<point x="359" y="543"/>
			<point x="284" y="607"/>
			<point x="240" y="608" type="curve" smooth="yes"/>
			<point x="167" y="609"/>
			<point x="134" y="463"/>
			<point x="137" y="379" type="curve" smooth="yes"/>
			<point x="147" y="103"/>
			<point x="205" y="86"/>
		</contour>
	</outline>
</glyph>
<glyph name="P" format="2">
	<unicode hex="0050"/>
	<advance width="512"/>
	<outline>
		<contour>
			<point x="56" y="-1" type="line"/>
			<point x="48" y="7" type="line"/>
			<point x="48" y="695" type="line"/>
			<point x="56" y="704" type="line"/>
			<point x="296" y="704" type="line" smooth="yes"/>
			<point x="424" y="704"/>
			<point x="512" y="656"/>
			<point x="512" y="520" type="curve" smooth="yes"/>
			<point x="512" y="408"/>
			<point x="436" y="320"/>
			<point x="304" y="320" type="curve" smooth="yes"/>
			<point x="160" y="320" type="line"/>
			<point x="152" y="312" type="line"/>
			<point x="152" y="8" type="line"/>
			<point x="144" y="0" type="line"/>
		</contour>
		<contour>
			<point x="160" y="416" type="line"/>
			<point x="288" y="416" type="line" smooth="yes"/>
			<point x="360" y="416"/>
			<point x="408" y="440"/>
			<point x="408" y="520" type="curve" smooth="yes"/>
			<point x="408" y="592"/>
			<point x="344" y="608"/>
			<point x="288" y="608" type="curve" smooth="yes"/>
			<point x="160" y="608" type="line"/>
			<point x="152" y="600" type="line"/>
			<point x="152" y="424" type="line"/>
		</contour>
	</outline>
</glyph>
<glyph name="Q" format="2">
	<unicode hex="0051"/>
	<advance width="512"/>
	<outline>
		<contour>
			<point x="238" y="-11" type="curve" smooth="yes"/>
			<point x="74" y="-5"/>
			<point x="10" y="95"/>
			<point x="11" y="357" type="curve" smooth="yes"/>
			<point x="12" y="531"/>
			<point x="65" y="715"/>
			<point x="231" y="716" type="curve" smooth="yes"/>
			<point x="365" y="717"/>
			<point x="456" y="624"/>
			<point x="452" y="513" type="curve"/>
			<point x="380" y="512" type="line"/>
			<point x="381" y="573"/>
			<point x="319" y="658"/>
			<point x="242" y="657" type="curve" smooth="yes"/>
			<point x="139" y="655"/>
			<point x="87" y="523"/>
			<point x="89" y="367" type="curve" smooth="yes"/>
			<point x="92" y="146"/>
			<point x="140" y="49"/>
			<point x="251" y="48" type="curve" smooth="yes"/>
			<point x="336" y="47"/>
			<point x="375" y="102"/>
			<point x="393" y="166" type="curve"/>
			<point x="459" y="166" type="line"/>
			<point x="436" y="70"/>
			<point x="376" y="-16"/>
		</contour>
	</outline>
</glyph>
<glyph name="R" format="2">
	<unicode hex="0052"/>
	<outline>
		<contour>
			<point x="16" y="0" type="line"/>
			<point x="8" y="8" type="line"/>
			<point x="8" y="696" type="line"/>
			<point x="16" y="704" type="line"/>
			<point x="240" y="704" type="line"/>
			<point x="368" y="704"/>
			<point x="464" y="664"/>
			<point x="464" y="536" type="curve" smooth="yes"/>
			<point x="464" y="432"/>
			<point x="392" y="392"/>
			<point x="336" y="376" type="curve" smooth="yes"/>
			<point x="336" y="368" type="line"/>
			<point x="448" y="56" type="line"/>
			<point x="448" y="8" type="line"/>
			<point x="440" y="0" type="line"/>
			<point x="352" y="0" type="line"/>
			<point x="344" y="8" type="line"/>
			<point x="224" y="344" type="line"/>
			<point x="216" y="352" type="line"/>
			<point x="144" y="352" type="line"/>
			<point x="136" y="344" type="line"/>
			<point x="136" y="8" type="line"/>
			<point x="128" y="0" type="line"/>
		</contour>
		<contour>
			<point x="144" y="448" type="line"/>
			<point x="232" y="448" type="line"/>
			<point x="296" y="448"/>
			<point x="336" y="464"/>
			<point x="336" y="536" type="curve" smooth="yes"/>
			<point x="336" y="600"/>
			<point x="288" y="608"/>
			<point x="232" y="608" type="curve"/>
			<point x="144" y="608" type="line"/>
			<point x="136" y="600" type="line"/>
			<point x="136" y="456" type="line"/>
		</contour>
	</outline>
</glyph>
<glyph name="U" format="2">
	<unicode hex="0055"/>
	<advance width="480"/>
	<outline>
		<contour>
			<point x="56" y="0" type="line"/>
			<point x="48" y="7" type="line"/>
			<point x="48" y="696" type="line"/>
			<point x="56" y="704" type="line"/>
			<point x="144" y="704" type="line"/>
			<point x="152" y="696" type="line"/>
			<point x="152" y="88" type="line"/>
			<point x="160" y="80" type="line"/>
			<point x="320" y="80" type="line"/>
			<point x="328" y="88" type="line"/>
			<point x="328" y="696" type="line"/>
			<point x="336" y="704" type="line"/>
			<point x="424" y="704" type="line"/>
			<point x="432" y="696" type="line"/>
			<point x="432" y="8" type="line"/>
			<point x="424" y="0" type="line"/>
		</contour>
	</outline>
</glyph>
<glyph name="V" format="2">
	<unicode hex="0056"/>
	<advance width="480"/>
	<outline>
		<contour>
			<point x="152" y="0" type="line"/>
			<point x="144" y="7" type="line"/>
			<point x="48" y="696" type="line"/>
			<point x="56" y="704" type="line"/>
			<point x="144" y="704" type="line"/>
			<point x="152" y="696" type="line"/>
			<point x="224" y="88" type="line"/>
			<point x="232" y="80" type="line"/>
			<point x="248" y="80" type="line"/>
			<point x="256" y="88" type="line"/>
			<point x="328" y="696" type="line"/>
			<point x="336" y="704" type="line"/>
			<point x="424" y="704" type="line"/>
			<point x="432" y="696" type="line"/>
			<point x="328" y="8" type="line"/>
			<point x="320" y="0" type="line"/>
		</contour>
	</outline>
</glyph>
<glyph name="X" format="2">
	<unicode hex="0058"/>
	<advance width="196"/>
	<outline>
		<contour>
			<point x="56" y="0" type="line"/>
			<point x="48" y="7" type="line"/>
			<point x="48" y="696" type="line"/>
			<point x="56" y="704" type="line"/>
			<point x="140" y="704" type="line"/>
			<point x="148" y="696" type="line"/>
			<point x="148" y="8" type="line"/>
			<point x="140" y="0" type="line"/>
		</contour>
	</outline>
</glyph>
<glyph name="Z" format="2">
	<unicode hex="005A"/>
	<advance width="438"/>
	<outline>
		<contour>
			<point x="48" y="0" type="line"/>
			<point x="40" y="8" type="line"/>
			<point x="40" y="48" type="line"/>
			<point x="312" y="648" type="line"/>
			<point x="48" y="648" type="line"/>
			<point x="40" y="656" type="line"/>
			<point x="40" y="696" type="line"/>
			<point x="48" y="704" type="line"/>
			<point x="390" y="704" type="line"/>
			<point x="398" y="696" type="line"/>
			<point x="398" y="651" type="line"/>
			<point x="132" y="65" type="line"/>
			<point x="390" y="65" type="line"/>
			<point x="398" y="57" type="line"/>
			<point x="398" y="8" type="line"/>
			<point x="390" y="0" type="line"/>
		</contour>
	</outline>
</glyph>
<glyph name="a" format="2">
	<unicode hex="0061"/>
	<advance width="472"/>
	<outline>
		<contour>
			<point x="176" y="-8" type="curve" smooth="yes"/>
			<point x="48" y="-8"/>
			<point x="24" y="64"/>
			<point x="24" y="152" type="curve" smooth="yes"/>
			<point x="24" y="255"/>
			<point x="112" y="312"/>
			<point x="224" y="312" type="curve" smooth="yes"/>
			<point x="320" y="312" type="line"/>
			<point x="328" y="320" type="line"/>
			<point x="328" y="360" type="line" smooth="yes"/>
			<point x="328" y="408"/>
			<point x="296" y="440"/>
			<point x="232" y="440" type="curve" smooth="yes"/>
			<point x="176" y="440"/>
			<point x="136" y="416"/>
			<point x="136" y="352" type="curve"/>
			<point x="128" y="344" type="line"/>
			<point x="56" y="344" type="line"/>
			<point x="48" y="352" type="line"/>
			<point x="48" y="368" type="line" smooth="yes"/>
			<point x="48" y="464"/>
			<point x="132" y="520"/>
			<point x="232" y="520" type="curve" smooth="yes"/>
			<point x="352" y="520"/>
			<point x="416" y="472"/>
			<point x="416" y="360" type="curve" smooth="yes"/>
			<point x="416" y="104" type="line"/>
			<point x="416" y="80"/>
			<point x="432" y="72"/>
			<point x="448" y="72" type="curve"/>
			<point x="456" y="64" type="line"/>
			<point x="456" y="8" type="line"/>
			<point x="448" y="0" type="line"/>
			<point x="400" y="0" type="line"/>
			<point x="352" y="0"/>
			<point x="343" y="27"/>
			<point x="336" y="64" type="curve"/>
			<point x="328" y="64" type="line"/>
			<point x="312" y="24"/>
			<point x="240" y="-8"/>
		</contour>
		<contour>
			<point x="192" y="72" type="curve" smooth="yes"/>
			<point x="264" y="72"/>
			<point x="328" y="146"/>
			<point x="328" y="232" type="curve"/>
			<point x="320" y="240" type="line"/>
			<point x="256" y="240" type="line" smooth="yes"/>
			<point x="152" y="237"/>
			<point x="112" y="190"/>
			<point x="112" y="144" type="curve" smooth="yes"/>
			<point x="112" y="88"/>
			<point x="152" y="72"/>
		</contour>
	</outline>
</glyph>
<glyph name="b" format="2">
	<unicode hex="0062"/>
	<advance width="520"/>
	<outline>
		<contour>
			<point x="272" y="-8" type="curve" smooth="yes"/>
			<point x="228" y="-8"/>
			<point x="169" y="21"/>
			<point x="144" y="50" type="curve"/>
			<point x="136" y="50" type="line"/>
			<point x="112" y="8" type="line"/>
			<point x="104" y="0" type="line"/>
			<point x="40" y="0" type="line"/>
			<point x="32" y="8" type="line"/>
			<point x="32" y="696" type="line"/>
			<point x="40" y="704" type="line"/>
			<point x="120" y="704" type="line"/>
			<point x="128" y="696" type="line"/>
			<point x="128" y="458" type="line"/>
			<point x="134" y="458" type="line"/>
			<point x="171" y="494"/>
			<point x="215" y="520"/>
			<point x="272" y="520" type="curve" smooth="yes"/>
			<point x="400" y="520"/>
			<point x="496" y="448"/>
			<point x="496" y="256" type="curve" smooth="yes"/>
			<point x="496" y="64"/>
			<point x="400" y="-8"/>
		</contour>
		<contour>
			<point x="272" y="80" type="curve" smooth="yes"/>
			<point x="368" y="80"/>
			<point x="396" y="160"/>
			<point x="396" y="256" type="curve" smooth="yes"/>
			<point x="396" y="352"/>
			<point x="368" y="432"/>
			<point x="272" y="432" type="curve" smooth="yes"/>
			<point x="176" y="432"/>
			<point x="140" y="352"/>
			<point x="140" y="256" type="curve" smooth="yes"/>
			<point x="140" y="160"/>
			<point x="176" y="80"/>
		</contour>
	</outline>
</glyph>
<glyph name="d" format="2">
	<unicode hex="0064"/>
	<advance width="599"/>
	<outline>
		<contour>
			<point x="264" y="-8" type="curve" smooth="yes"/>
			<point x="136" y="-8"/>
			<point x="24" y="64"/>
			<point x="24" y="256" type="curve" smooth="yes"/>
			<point x="24" y="448"/>
			<point x="136" y="520"/>
			<point x="264" y="520" type="curve" smooth="yes"/>
			<point x="335" y="520"/>
			<point x="410" y="496"/>
			<point x="455" y="444" type="curve"/>
			<point x="459" y="444" type="line"/>
			<point x="459" y="696" type="line"/>
			<point x="467" y="704" type="line"/>
			<point x="547" y="704" type="line"/>
			<point x="555" y="696" type="line"/>
			<point x="555" y="0" type="line"/>
			<point x="509" y="-5" type="line"/>
			<point x="478" y="-3" type="line"/>
			<point x="414" y="22" type="line"/>
			<point x="372" y="13" type="line" smooth="yes"/>
			<point x="339" y="-1"/>
			<point x="302" y="-8"/>
		</contour>
		<contour>
			<point x="264" y="80" type="curve" smooth="yes"/>
			<point x="360" y="80"/>
			<point x="404" y="160"/>
			<point x="404" y="256" type="curve" smooth="yes"/>
			<point x="404" y="352"/>
			<point x="360" y="432"/>
			<point x="264" y="432" type="curve" smooth="yes"/>
			<point x="168" y="432"/>
			<point x="124" y="352"/>
			<point x="124" y="256" type="curve" smooth="yes"/>
			<point x="124" y="160"/>
			<point x="168" y="80"/>
		</contour>
	</outline>
</glyph>
<glyph name="e" format="2">
	<unicode hex="0065"/>
	<advance width="478"/>
	<outline>
		<contour>
			<point x="256" y="-8" type="curve" smooth="yes"/>
			<point x="96" y="-8"/>
			<point x="24" y="56"/>
			<point x="24" y="272" type="curve" smooth="yes"/>
			<point x="24" y="440"/>
			<point x="128" y="520"/>
			<point x="248" y="520" type="curve" smooth="yes"/>
			<point x="364" y="520"/>
			<point x="456" y="464"/>
			<point x="456" y="304" type="curve" smooth="yes"/>
			<point x="456" y="240" type="line"/>
			<point x="448" y="232" type="line"/>
			<point x="124" y="232" type="line"/>
			<point x="116" y="224" type="line" smooth="yes"/>
			<point x="116" y="104"/>
			<point x="192" y="72"/>
			<point x="256" y="72" type="curve" smooth="yes"/>
			<point x="320" y="72"/>
			<point x="358" y="112"/>
			<point x="366" y="152" type="curve"/>
			<point x="374" y="160" type="line"/>
			<point x="440" y="160" type="line"/>
			<point x="448" y="152" type="line"/>
			<point x="448" y="72"/>
			<point x="376" y="-8"/>
		</contour>
		<contour>
			<point x="124" y="312" type="line"/>
			<point x="358" y="312" type="line"/>
			<point x="366" y="320" type="line" smooth="yes"/>
			<point x="366" y="376"/>
			<point x="328" y="440"/>
			<point x="248" y="440" type="curve" smooth="yes"/>
			<point x="160" y="440"/>
			<point x="116" y="384"/>
			<point x="116" y="320" type="curve" smooth="yes"/>
		</contour>
	</outline>
</glyph>
<glyph name="f" format="2">
	<unicode hex="0066"/>
	<advance width="340"/>
	<outline>
		<contour>
			<point x="212" y="8" type="line"/>
			<point x="204" y="0" type="line"/>
			<point x="124" y="0" type="line"/>
			<point x="116" y="8" type="line"/>
			<point x="116" y="416" type="line"/>
			<point x="108" y="424" type="line"/>
			<point x="32" y="424" type="line"/>
			<point x="24" y="432" type="line"/>
			<point x="24" y="504" type="line"/>
			<point x="32" y="512" type="line"/>
			<point x="108" y="512" type="line"/>
			<point x="116" y="520" type="line"/>
			<point x="116" y="555" type="line" smooth="yes"/>
			<point x="116" y="635"/>
			<point x="172" y="704"/>
			<point x="235" y="704" type="curve" smooth="yes"/>
			<point x="308" y="704" type="line"/>
			<point x="316" y="696" type="line"/>
			<point x="316" y="632" type="line"/>
			<point x="308" y="624" type="line"/>
			<point x="288" y="624" type="line" smooth="yes"/>
			<point x="232" y="624"/>
			<point x="212" y="600"/>
			<point x="212" y="544" type="curve" smooth="yes"/>
			<point x="212" y="520" type="line"/>
			<point x="220" y="512" type="line"/>
			<point x="308" y="512" type="line"/>
			<point x="316" y="504" type="line"/>
			<point x="316" y="440" type="line"/>
			<point x="308" y="432" type="line"/>
			<point x="220" y="432" type="line"/>
			<point x="212" y="424" type="line"/>
		</contour>
	</outline>
</glyph>
<glyph name="g" format="2">
	<unicode hex="0067"/>
	<advance width="563"/>
	<outline>
		<contour>
			<point x="264" y="-8" type="curve" smooth="yes"/>
			<point x="136" y="-8"/>
			<point x="24" y="64"/>
			<point x="24" y="256" type="curve" smooth="yes"/>
			<point x="24" y="448"/>
			<point x="136" y="520"/>
			<point x="264" y="520" type="curve" smooth="yes"/>
			<point x="314" y="520"/>
			<point x="362" y="501"/>
			<point x="402" y="476" type="curve" smooth="yes"/>
			<point x="432" y="475" type="line"/>
			<point x="441" y="512" type="line"/>
			<point x="531" y="512" type="line"/>
			<point x="539" y="504" type="line"/>
			<point x="539" y="-66" type="line" smooth="yes"/>
			<point x="539" y="-239"/>
			<point x="372" y="-256"/>
			<point x="229" y="-256" type="curve" smooth="yes"/>
			<point x="118" y="-256" type="line"/>
			<point x="110" y="-248" type="line"/>
			<point x="110" y="-159" type="line"/>
			<point x="118" y="-151" type="line"/>
			<point x="317" y="-147" type="line"/>
			<point x="375" y="-147"/>
			<point x="423" y="-91"/>
			<point x="423" y="-58" type="curve" smooth="yes"/>
			<point x="431" y="40" type="line"/>
			<point x="410" y="37" type="line" smooth="yes"/>
			<point x="371" y="11"/>
			<point x="315" y="-8"/>
		</contour>
		<contour>
			<point x="264" y="80" type="curve" smooth="yes"/>
			<point x="360" y="80"/>
			<point x="404" y="160"/>
			<point x="404" y="256" type="curve" smooth="yes"/>
			<point x="404" y="352"/>
			<point x="360" y="432"/>
			<point x="264" y="432" type="curve" smooth="yes"/>
			<point x="168" y="432"/>
			<point x="124" y="352"/>
			<point x="124" y="256" type="curve" smooth="yes"/>
			<point x="124" y="160"/>
			<point x="168" y="80"/>
		</contour>
	</outline>
</glyph>
<glyph name="h" format="2">
	<unicode hex="0068"/>
	<advance width="450"/>
	<outline>
		<contour>
			<point x="40" y="0" type="line"/>
			<point x="32" y="8" type="line"/>
			<point x="32" y="696" type="line"/>
			<point x="40" y="704" type="line"/>
			<point x="111" y="704" type="line"/>
			<point x="119" y="696" type="line"/>
			<point x="120" y="461" type="line"/>
			<point x="128" y="461" type="line"/>
			<point x="168" y="501"/>
			<point x="219" y="520"/>
			<point x="275" y="520" type="curve" smooth="yes"/>
			<point x="331" y="520"/>
			<point x="425" y="487"/>
			<point x="424" y="320" type="curve" smooth="yes"/>
			<point x="424" y="8" type="line"/>
			<point x="416" y="0" type="line"/>
			<point x="336" y="0" type="line"/>
			<point x="328" y="8" type="line"/>
			<point x="328" y="296" type="line" smooth="yes"/>
			<point x="328" y="392"/>
			<point x="296" y="424"/>
			<point x="232" y="424" type="curve" smooth="yes"/>
			<point x="168" y="424"/>
			<point x="128" y="376"/>
			<point x="128" y="320" type="curve" smooth="yes"/>
			<point x="128" y="8" type="line"/>
			<point x="120" y="0" type="line"/>
		</contour>
	</outline>
</glyph>
<glyph name="i" format="2">
	<unicode hex="0069"/>
	<advance width="176"/>
	<outline>
		<contour>
			<point x="48" y="0" type="line"/>
			<point x="40" y="8" type="line"/>
			<point x="40" y="504" type="line"/>
			<point x="48" y="512" type="line"/>
			<point x="128" y="512" type="line"/>
			<point x="136" y="504" type="line"/>
			<point x="136" y="8" type="line"/>
			<point x="128" y="0" type="line"/>
		</contour>
		<contour>
			<point x="48" y="588" type="line"/>
			<point x="40" y="596" type="line"/>
			<point x="40" y="696" type="line"/>
			<point x="48" y="704" type="line"/>
			<point x="128" y="704" type="line"/>
			<point x="136" y="696" type="line"/>
			<point x="136" y="596" type="line"/>
			<point x="128" y="588" type="line"/>
		</contour>
	</outline>
</glyph>
<glyph name="j" format="2">
	<unicode hex="006A"/>
	<advance width="176"/>
	<outline>
		<contour>
			<point x="-45" y="-114" type="line"/>
			<point x="-37" y="-106" type="line"/>
			<point x="5" y="-106" type="line" smooth="yes"/>
			<point x="26" y="-106"/>
			<point x="40" y="-95"/>
			<point x="40" y="-70" type="curve" smooth="yes"/>
			<point x="40" y="504" type="line"/>
			<point x="48" y="512" type="line"/>
			<point x="128" y="512" type="line"/>
			<point x="136" y="504" type="line"/>
			<point x="136" y="-73" type="line" smooth="yes"/>
			<point x="136" y="-157"/>
			<point x="104" y="-186"/>
			<point x="24" y="-186" type="curve" smooth="yes"/>
			<point x="-37" y="-186" type="line"/>
			<point x="-45" y="-178" type="line"/>
		</contour>
		<contour>
			<point x="48" y="588" type="line"/>
			<point x="40" y="596" type="line"/>
			<point x="40" y="696" type="line"/>
			<point x="48" y="704" type="line"/>
			<point x="128" y="704" type="line"/>
			<point x="136" y="696" type="line"/>
			<point x="136" y="596" type="line"/>
			<point x="128" y="588" type="line"/>
		</contour>
	</outline>
</glyph>
<glyph name="k" format="2">
	<unicode hex="006B"/>
	<advance width="392"/>
	<outline>
		<contour>
			<point x="48" y="0" type="line"/>
			<point x="40" y="8" type="line"/>
			<point x="40" y="696" type="line"/>
			<point x="48" y="704" type="line"/>
			<point x="128" y="704" type="line"/>
			<point x="136" y="696" type="line"/>
			<point x="136" y="257" type="line"/>
			<point x="144" y="257" type="line"/>
			<point x="327" y="504" type="line"/>
			<point x="335" y="512" type="line"/>
			<point x="384" y="512" type="line"/>
			<point x="392" y="504" type="line"/>
			<point x="392" y="452" type="line"/>
			<point x="260" y="280" type="line"/>
			<point x="260" y="272" type="line"/>
			<point x="392" y="46" type="line"/>
			<point x="392" y="8" type="line"/>
			<point x="384" y="0" type="line"/>
			<point x="332" y="0" type="line"/>
			<point x="324" y="8" type="line"/>
			<point x="209" y="204" type="line"/>
			<point x="201" y="204" type="line"/>
			<point x="136" y="123" type="line"/>
			<point x="136" y="115" type="line"/>
			<point x="136" y="8" type="line"/>
			<point x="128" y="0" type="line"/>
		</contour>
	</outline>
</glyph>
<glyph name="m" format="2">
	<unicode hex="006D"/>
	<advance width="746"/>
	<outline>
		<contour>
			<point x="40" y="0" type="line"/>
			<point x="32" y="8" type="line"/>
			<point x="32" y="504" type="line"/>
			<point x="40" y="512" type="line"/>
			<point x="95" y="512" type="line"/>
			<point x="103" y="504" type="line"/>
			<point x="120" y="461" type="line"/>
			<point x="128" y="461" type="line"/>
			<point x="168" y="501"/>
			<point x="219" y="520"/>
			<point x="275" y="520" type="curve" smooth="yes"/>
			<point x="315" y="520"/>
			<point x="372" y="503"/>
			<point x="404" y="431" type="curve" smooth="yes"/>
			<point x="412" y="431" type="line" smooth="yes"/>
			<point x="425" y="478"/>
			<point x="484" y="520"/>
			<point x="542" y="520" type="curve" smooth="yes"/>
			<point x="661" y="520"/>
			<point x="720" y="465"/>
			<point x="720" y="337" type="curve" smooth="yes"/>
			<point x="720" y="8" type="line"/>
			<point x="712" y="0" type="line"/>
			<point x="632" y="0" type="line"/>
			<point x="624" y="8" type="line"/>
			<point x="624" y="330" type="line" smooth="yes"/>
			<point x="624" y="389"/>
			<point x="583" y="424"/>
			<point x="534" y="424" type="curve" smooth="yes"/>
			<point x="480" y="424"/>
			<point x="424" y="390"/>
			<point x="424" y="296" type="curve" smooth="yes"/>
			<point x="424" y="8" type="line"/>
			<point x="416" y="0" type="line"/>
			<point x="336" y="0" type="line"/>
			<point x="328" y="8" type="line"/>
			<point x="328" y="296" type="line" smooth="yes"/>
			<point x="328" y="392"/>
			<point x="296" y="424"/>
			<point x="232" y="424" type="curve" smooth="yes"/>
			<point x="168" y="424"/>
			<point x="128" y="376"/>
			<point x="128" y="320" type="curve" smooth="yes"/>
			<point x="128" y="8" type="line"/>
			<point x="120" y="0" type="line"/>
		</contour>
	</outline>
</glyph>
<glyph name="n" format="2">
	<unicode hex="006E"/>
	<advance width="512"/>
	<outline>
		<contour>
			<point x="56" y="0" type="line"/>
			<point x="48" y="8" type="line"/>
			<point x="48" y="504" type="line"/>
			<point x="56" y="512" type="line"/>
			<point x="127" y="512" type="line"/>
			<point x="135" y="504" type="line"/>
			<point x="152" y="461" type="line"/>
			<point x="160" y="461" type="line"/>
			<point x="200" y="501"/>
			<point x="251" y="520"/>
			<point x="315" y="520" type="curve" smooth="yes"/>
			<point x="371" y="520"/>
			<point x="473" y="479"/>
			<point x="472" y="320" type="curve" smooth="yes"/>
			<point x="472" y="8" type="line"/>
			<point x="464" y="0" type="line"/>
			<point x="368" y="0" type="line"/>
			<point x="360" y="8" type="line"/>
			<point x="360" y="304" type="line" smooth="yes"/>
			<point x="360" y="400"/>
			<point x="320" y="432"/>
			<point x="256" y="432" type="curve" smooth="yes"/>
			<point x="192" y="432"/>
			<point x="152" y="384"/>
			<point x="152" y="328" type="curve" smooth="yes"/>
			<point x="152" y="8" type="line"/>
			<point x="144" y="0" type="line"/>
		</contour>
	</outline>
</glyph>
<glyph name="o" format="2">
	<unicode hex="006F"/>
	<advance width="528"/>
	<outline>
		<contour>
			<point x="264" y="-8" type="curve" smooth="yes"/>
			<point x="136" y="-8"/>
			<point x="24" y="64"/>
			<point x="24" y="256" type="curve" smooth="yes"/>
			<point x="24" y="448"/>
			<point x="136" y="520"/>
			<point x="264" y="520" type="curve" smooth="yes"/>
			<point x="392" y="520"/>
			<point x="504" y="448"/>
			<point x="504" y="256" type="curve" smooth="yes"/>
			<point x="504" y="64"/>
			<point x="392" y="-8"/>
		</contour>
		<contour>
			<point x="264" y="80" type="curve" smooth="yes"/>
			<point x="360" y="80"/>
			<point x="404" y="160"/>
			<point x="404" y="256" type="curve" smooth="yes"/>
			<point x="404" y="352"/>
			<point x="360" y="432"/>
			<point x="264" y="432" type="curve" smooth="yes"/>
			<point x="168" y="432"/>
			<point x="124" y="352"/>
			<point x="124" y="256" type="curve" smooth="yes"/>
			<point x="124" y="160"/>
			<point x="168" y="80"/>
		</contour>
	</outline>
</glyph>
<glyph name="p" format="2">
	<unicode hex="0070"/>
	<advance width="554"/>
	<outline>
		<contour>
			<point x="290" y="-8" type="curve" smooth="yes"/>
			<point x="243" y="-8"/>
			<point x="197" y="2"/>
			<point x="159" y="24" type="curve" smooth="yes"/>
			<point x="136" y="-244" type="line"/>
			<point x="108" y="-257" type="line"/>
			<point x="50" y="-252" type="line"/>
			<point x="27" y="-230" type="line"/>
			<point x="24" y="501" type="line"/>
			<point x="46" y="516" type="line"/>
			<point x="101" y="515" type="line"/>
			<point x="125" y="496" type="line"/>
			<point x="124" y="462" type="line"/>
			<point x="168" y="503"/>
			<point x="227" y="520"/>
			<point x="290" y="520" type="curve" smooth="yes"/>
			<point x="418" y="520"/>
			<point x="530" y="448"/>
			<point x="530" y="256" type="curve" smooth="yes"/>
			<point x="530" y="64"/>
			<point x="418" y="-8"/>
		</contour>
		<contour>
			<point x="290" y="80" type="curve" smooth="yes"/>
			<point x="386" y="80"/>
			<point x="430" y="160"/>
			<point x="430" y="256" type="curve" smooth="yes"/>
			<point x="430" y="352"/>
			<point x="386" y="432"/>
			<point x="290" y="432" type="curve" smooth="yes"/>
			<point x="194" y="432"/>
			<point x="150" y="352"/>
			<point x="150" y="256" type="curve" smooth="yes"/>
			<point x="150" y="160"/>
			<point x="194" y="80"/>
		</contour>
	</outline>
</glyph>
<glyph name="r" format="2">
	<unicode hex="0072"/>
	<advance width="290"/>
	<outline>
		<contour>
			<point x="40" y="0" type="line"/>
			<point x="32" y="8" type="line"/>
			<point x="32" y="504" type="line"/>
			<point x="40" y="512" type="line"/>
			<point x="87" y="512" type="line"/>
			<point x="95" y="504" type="line"/>
			<point x="112" y="453" type="line"/>
			<point x="120" y="453" type="line"/>
			<point x="141" y="482"/>
			<point x="157" y="520"/>
			<point x="235" y="520" type="curve" smooth="yes"/>
			<point x="274" y="520" type="line"/>
			<point x="282" y="512" type="line"/>
			<point x="282" y="432" type="line"/>
			<point x="274" y="424" type="line"/>
			<point x="238" y="425" type="line" smooth="yes"/>
			<point x="159" y="425"/>
			<point x="128" y="376"/>
			<point x="128" y="320" type="curve"/>
			<point x="128" y="8" type="line"/>
			<point x="120" y="0" type="line"/>
		</contour>
	</outline>
</glyph>
<glyph name="s" format="2">
	<unicode hex="0073"/>
	<advance width="480"/>
	<outline>
		<contour>
			<point x="256" y="184" type="curve" smooth="yes"/>
			<point x="170" y="205"/>
			<point x="21" y="235"/>
			<point x="24" y="352" type="curve" smooth="yes"/>
			<point x="27" y="488"/>
			<point x="112" y="520"/>
			<point x="248" y="520" type="curve" smooth="yes"/>
			<point x="340" y="520"/>
			<point x="456" y="504"/>
			<point x="456" y="344" type="curve"/>
			<point x="448" y="336" type="line"/>
			<point x="371" y="335" type="line"/>
			<point x="359" y="350" type="line"/>
			<point x="358" y="405"/>
			<point x="299" y="448"/>
			<point x="245" y="447" type="curve" smooth="yes"/>
			<point x="146" y="445"/>
			<point x="127" y="409"/>
			<point x="126" y="360" type="curve" smooth="yes"/>
			<point x="125" y="302"/>
			<point x="194" y="281"/>
			<point x="262" y="265" type="curve" smooth="yes"/>
			<point x="346" y="245"/>
			<point x="455" y="240"/>
			<point x="456" y="128" type="curve" smooth="yes"/>
			<point x="457" y="17"/>
			<point x="350" y="-23"/>
			<point x="228" y="-21" type="curve" smooth="yes"/>
			<point x="163" y="-20"/>
			<point x="13" y="14"/>
			<point x="13" y="98" type="curve"/>
			<point x="28" y="121" type="line"/>
			<point x="93" y="124" type="line"/>
			<point x="118" y="122" type="line"/>
			<point x="149" y="93"/>
			<point x="153" y="71"/>
			<point x="233" y="66" type="curve" smooth="yes"/>
			<point x="329" y="60"/>
			<point x="357" y="86"/>
			<point x="358" y="114" type="curve" smooth="yes"/>
			<point x="359" y="155"/>
			<point x="318" y="169"/>
		</contour>
	</outline>
</glyph>
<glyph name="t" format="2">
	<unicode hex="0074"/>
	<advance width="341"/>
	<outline>
		<contour>
			<point x="224" y="0" type="line" smooth="yes"/>
			<point x="119" y="-2"/>
			<point x="116" y="50"/>
			<point x="116" y="106" type="curve" smooth="yes"/>
			<point x="116" y="416" type="line"/>
			<point x="108" y="424" type="line"/>
			<point x="32" y="424" type="line"/>
			<point x="24" y="432" type="line"/>
			<point x="24" y="504" type="line"/>
			<point x="32" y="512" type="line"/>
			<point x="108" y="512" type="line"/>
			<point x="116" y="520" type="line"/>
			<point x="116" y="624" type="line"/>
			<point x="124" y="632" type="line"/>
			<point x="204" y="632" type="line"/>
			<point x="212" y="624" type="line"/>
			<point x="212" y="520" type="line"/>
			<point x="220" y="512" type="line"/>
			<point x="309" y="512" type="line"/>
			<point x="317" y="504" type="line"/>
			<point x="317" y="440" type="line"/>
			<point x="309" y="432" type="line"/>
			<point x="220" y="432" type="line"/>
			<point x="212" y="424" type="line"/>
			<point x="212" y="132" type="line" smooth="yes"/>
			<point x="212" y="108"/>
			<point x="243" y="80"/>
			<point x="271" y="80" type="curve" smooth="yes"/>
			<point x="309" y="80" type="line"/>
			<point x="317" y="72" type="line"/>
			<point x="317" y="8" type="line"/>
			<point x="309" y="0" type="line"/>
		</contour>
	</outline>
</glyph>
<glyph name="u" format="2">
	<unicode hex="0075"/>
	<advance width="466"/>
	<outline>
		<contour>
			<point x="343" y="16" type="line"/>
			<point x="330" y="15" type="line"/>
			<point x="314" y="4"/>
			<point x="276" y="-16"/>
			<point x="196" y="-16" type="curve" smooth="yes"/>
			<point x="118" y="-16"/>
			<point x="32" y="42"/>
			<point x="32" y="160" type="curve" smooth="yes"/>
			<point x="32" y="504" type="line"/>
			<point x="40" y="512" type="line"/>
			<point x="120" y="512" type="line"/>
			<point x="128" y="504" type="line"/>
			<point x="128" y="461" type="line"/>
			<point x="128" y="219" type="line" smooth="yes"/>
			<point x="128" y="107"/>
			<point x="213" y="91"/>
			<point x="252" y="91" type="curve" smooth="yes"/>
			<point x="285" y="91"/>
			<point x="343" y="157"/>
			<point x="344" y="199" type="curve" smooth="yes"/>
			<point x="344" y="504" type="line"/>
			<point x="352" y="512" type="line"/>
			<point x="418" y="512" type="line"/>
			<point x="422" y="-1" type="line"/>
			<point x="355" y="0" type="line"/>
		</contour>
	</outline>
</glyph>
<glyph name="v" format="2">
	<unicode hex="0076"/>
	<advance width="492"/>
	<outline>
		<contour>
			<point x="208" y="0" type="line"/>
			<point x="200" y="8" type="line"/>
			<point x="40" y="504" type="line"/>
			<point x="48" y="512" type="line"/>
			<point x="128" y="512" type="line"/>
			<point x="136" y="504" type="line"/>
			<point x="247" y="159" type="line"/>
			<point x="252" y="142" type="line"/>
			<point x="353" y="500" type="line"/>
			<point x="373" y="513" type="line"/>
			<point x="435" y="512" type="line"/>
			<point x="452" y="499" type="line"/>
			<point x="296" y="8" type="line"/>
			<point x="288" y="0" type="line"/>
		</contour>
	</outline>
</glyph>
<glyph name="z" format="2">
	<unicode hex="007A"/>
	<advance width="430"/>
	<outline>
		<contour>
			<point x="48" y="0" type="line"/>
			<point x="40" y="8" type="line"/>
			<point x="40" y="48" type="line"/>
			<point x="312" y="456" type="line"/>
			<point x="48" y="456" type="line"/>
			<point x="40" y="464" type="line"/>
			<point x="40" y="504" type="line"/>
			<point x="48" y="512" type="line"/>
			<point x="390" y="512" type="line"/>
			<point x="398" y="504" type="line"/>
			<point x="398" y="459" type="line"/>
			<point x="132" y="65" type="line"/>
			<point x="390" y="65" type="line"/>
			<point x="398" y="57" type="line"/>
			<point x="398" y="8" type="line"/>
			<point x="390" y="0" type="line"/>
		</contour>
	</outline>
</glyph>
